# xmcd CD database file
#
# Track frame offsets:
#	183
#	19998
#	39945
#	53310
#	67655
#	77435
#	90728
#	109660
#	128923
#	136845
#	153790
#
# Disc length: 2267 seconds
#
# Revision: 19
# Processed by: cddbd v1.5.2PL0 Copyright (c) Steve Scherf et al.
# Submitted via: CDex 2.06
#
DISCID=7308d90b
DTITLE=Ry Cooder - Crossroads - Original Motion Picture Soundtrack
DYEAR=1986
DGENRE=Blues
TTITLE0=Crossroads
TTITLE1=Down in Mississippi
TTITLE2=Cotton Needs Pickin'
TTITLE3=Viola Lee Blues
TTITLE4=See You in Hell, Blind Boy
TTITLE5=Nitty Gritty Mississippi
TTITLE6=He Made a Woman Out of Me
TTITLE7=Feelin' Bad Blues
TTITLE8=Somebody's Callin' My Name
TTITLE9=Willie Brown Blues
TTITLE10=Walkin' Away Blues
EXTD=YEAR: 1986
EXTT0=
EXTT1=
EXTT2=
EXTT3=
EXTT4=
EXTT5=
EXTT6=
EXTT7=
EXTT8=
EXTT9=
EXTT10=
PLAYORDER=
